<svg xmlns="http://www.w3.org/2000/svg" xmlns:xlink="http://www.w3.org/1999/xlink" id="Capa_1" x="0" y="0" version="1.1" viewBox="0 0 59 59" xml:space="preserve" style="enable-background:new 0 0 59 59"><polygon style="fill:#7383bf" points="25.5 15 20.5 8 .5 8 .5 15 .5 59 58.5 59 58.5 22 30.5 22"/><polygon style="fill:#ebba16" points="30.5 22 58.5 22 58.5 15 25.5 15"/><polygon style="fill:#556080" points="58.5 11 28.5 11 23.5 4 3.5 4 3.5 8 20.5 8 25.5 15 58.5 15"/><polygon style="fill:#424a60" points="58.5 7 31.5 7 26.5 0 6.5 0 6.5 4 23.5 4 28.5 11 58.5 11"/><rect style="fill:#edeada" width="26" height="18" x="27.5" y="36"/><g><rect style="fill:#cec9ae" width="10" height="2" x="32.5" y="40"/><rect style="fill:#cec9ae" width="16" height="2" x="32.5" y="44"/><rect style="fill:#cec9ae" width="16" height="2" x="32.5" y="48"/></g></svg>